<?xml version="1.0" encoding="UTF-8" standalone="no"?>
<!-- Created with Inkscape (http://www.inkscape.org/) -->

<svg
   xmlns:dc="http://purl.org/dc/elements/1.1/"
   xmlns:cc="http://creativecommons.org/ns#"
   xmlns:rdf="http://www.w3.org/1999/02/22-rdf-syntax-ns#"
   xmlns:svg="http://www.w3.org/2000/svg"
   xmlns="http://www.w3.org/2000/svg"
   xmlns:sodipodi="http://sodipodi.sourceforge.net/DTD/sodipodi-0.dtd"
   xmlns:inkscape="http://www.inkscape.org/namespaces/inkscape"
   width="68.087318mm"
   height="9.2053585mm"
   viewBox="0 0 68.087318 9.2053585"
   version="1.1"
   id="svg8"
   inkscape:version="0.92.3 (2405546, 2018-03-11)"
   sodipodi:docname="ouroboros.svg">
  <defs
     id="defs2" />
  <sodipodi:namedview
     id="base"
     pagecolor="#ffffff"
     bordercolor="#666666"
     borderopacity="1.0"
     inkscape:pageopacity="0.0"
     inkscape:pageshadow="2"
     inkscape:zoom="2.8"
     inkscape:cx="156.71741"
     inkscape:cy="-0.36099835"
     inkscape:document-units="mm"
     inkscape:current-layer="layer1"
     showgrid="false"
     inkscape:snap-others="false"
     inkscape:snap-nodes="false"
     inkscape:snap-global="false"
     inkscape:window-width="2880"
     inkscape:window-height="1526"
     inkscape:window-x="2869"
     inkscape:window-y="-11"
     inkscape:window-maximized="1"
     fit-margin-top="0"
     fit-margin-left="0"
     fit-margin-right="0"
     fit-margin-bottom="0" />
  <metadata
     id="metadata5">
    <rdf:RDF>
      <cc:Work
         rdf:about="">
        <dc:format>image/svg+xml</dc:format>
        <dc:type
           rdf:resource="http://purl.org/dc/dcmitype/StillImage" />
        <dc:title></dc:title>
      </cc:Work>
    </rdf:RDF>
  </metadata>
  <g
     inkscape:groupmode="layer"
     id="layer2"
     inkscape:label="Layer 2"
     style="display:inline"
     transform="translate(-83.289182,-200.95489)">
    <g
       id="g3766"
       transform="matrix(0.02359272,0,0,0.02359272,45.325996,66.264057)" />
    <g
       id="g3768"
       transform="matrix(0.02359272,0,0,0.02359272,45.325996,66.264057)" />
    <g
       id="g3770"
       transform="matrix(0.02359272,0,0,0.02359272,45.325996,66.264057)" />
    <g
       id="g3772"
       transform="matrix(0.02359272,0,0,0.02359272,45.325996,66.264057)" />
    <g
       id="g3774"
       transform="matrix(0.02359272,0,0,0.02359272,45.325996,66.264057)" />
    <g
       id="g3776"
       transform="matrix(0.02359272,0,0,0.02359272,45.325996,66.264057)" />
    <g
       id="g3778"
       transform="matrix(0.02359272,0,0,0.02359272,45.325996,66.264057)" />
    <g
       id="g3780"
       transform="matrix(0.02359272,0,0,0.02359272,45.325996,66.264057)" />
    <g
       id="g3782"
       transform="matrix(0.02359272,0,0,0.02359272,45.325996,66.264057)" />
    <g
       id="g3784"
       transform="matrix(0.02359272,0,0,0.02359272,45.325996,66.264057)" />
    <g
       id="g3786"
       transform="matrix(0.02359272,0,0,0.02359272,45.325996,66.264057)" />
    <g
       id="g3788"
       transform="matrix(0.02359272,0,0,0.02359272,45.325996,66.264057)" />
    <g
       id="g3790"
       transform="matrix(0.02359272,0,0,0.02359272,45.325996,66.264057)" />
    <g
       id="g3792"
       transform="matrix(0.02359272,0,0,0.02359272,45.325996,66.264057)" />
    <g
       id="g3794"
       transform="matrix(0.02359272,0,0,0.02359272,45.325996,66.264057)" />
  </g>
  <g
     inkscape:label="Layer 1"
     inkscape:groupmode="layer"
     id="layer1"
     transform="translate(-83.289182,-200.95489)">
    <path
       id="path50"
       style="font-style:normal;font-variant:normal;font-weight:normal;font-stretch:normal;font-size:14.11111069px;line-height:1.25;font-family:'Anonymous Pro';-inkscape-font-specification:'Anonymous Pro';letter-spacing:0px;word-spacing:0px;fill:#000000;fill-opacity:1;stroke:none;stroke-width:0.26458332"
       d="m 151.3765,208.16894 q 0,0.565 -0.28249,0.93707 -0.2825,0.37207 -0.73036,0.59255 -0.44098,0.22049 -0.99219,0.31006 -0.54433,0.0965 -1.06798,0.0965 -0.87505,0 -1.74322,-0.25493 -0.86816,-0.25494 -1.50206,-0.66835 l 0.4203,-0.81304 q 0.70969,0.44786 1.39871,0.68901 0.68902,0.24116 1.42627,0.24116 2.12907,0 2.12907,-1.10243 0,-0.26872 -0.17915,-0.43408 -0.17225,-0.17226 -0.46853,-0.27561 -0.29628,-0.11024 -0.68213,-0.17225 -0.37896,-0.062 -0.79926,-0.11714 -0.53744,-0.0758 -1.06798,-0.17914 -0.53054,-0.10335 -0.97152,-0.31006 -0.43408,-0.20671 -0.7028,-0.55122 -0.26182,-0.3445 -0.26182,-0.9095 0,-0.48231 0.24115,-0.83371 0.24805,-0.3514 0.65457,-0.58567 0.41341,-0.23427 0.96463,-0.34451 0.55121,-0.11024 1.14377,-0.11024 0.84749,0 1.51584,0.19981 0.66835,0.19293 1.20579,0.55811 l -0.37897,0.73725 q -0.55121,-0.38585 -1.11621,-0.53744 -0.56499,-0.15847 -1.22645,-0.15847 -0.29628,0 -0.66146,0.0551 -0.35829,0.0482 -0.66835,0.17915 -0.31006,0.12402 -0.52365,0.33073 -0.20671,0.19981 -0.20671,0.50987 0,0.26872 0.17226,0.43408 0.17914,0.15848 0.47542,0.26872 0.29628,0.10335 0.67524,0.16536 0.38585,0.062 0.80615,0.11714 0.52366,0.0758 1.0542,0.17914 0.53744,0.10335 0.97152,0.30317 0.44097,0.19982 0.70969,0.54433 0.26871,0.3445 0.26871,0.9095 z m -7.37939,-1.41249 q 0,0.75103 -0.24116,1.36426 -0.23426,0.61323 -0.68213,1.0542 -0.44097,0.43408 -1.06108,0.68213 -0.62012,0.24804 -1.38493,0.24804 -0.75103,0 -1.37115,-0.24804 -0.62012,-0.24805 -1.06798,-0.68213 -0.44097,-0.44097 -0.68213,-1.0542 -0.23427,-0.61323 -0.23427,-1.36426 0,-0.73036 0.23427,-1.35737 0.24116,-0.63389 0.68213,-1.07487 0.44786,-0.44786 1.06798,-0.69591 0.62012,-0.25493 1.37115,-0.25493 0.76481,0 1.38493,0.25493 0.62011,0.24805 1.06108,0.69591 0.44787,0.44098 0.68213,1.07487 0.24116,0.62701 0.24116,1.35737 z m -0.94396,0 q 0,-0.55121 -0.16536,-1.01286 -0.15848,-0.46853 -0.47542,-0.81993 -0.31695,-0.3514 -0.77171,-0.55121 -0.44786,-0.19982 -1.01285,-0.19982 -0.565,0 -1.01975,0.19982 -0.44786,0.19981 -0.75792,0.55121 -0.31006,0.3514 -0.47543,0.81993 -0.15847,0.46165 -0.15847,1.01286 0,0.55122 0.15847,1.01975 0.16537,0.46164 0.47543,0.79926 0.31006,0.33762 0.75792,0.53055 0.45475,0.19292 1.01975,0.19292 0.56499,0 1.01285,-0.19292 0.45476,-0.19293 0.77171,-0.53055 0.31694,-0.33762 0.47542,-0.79926 0.16536,-0.46853 0.16536,-1.01975 z m -7.28982,-2.32888 q -0.50987,-0.25494 -1.21267,-0.25494 -0.57878,0 -1.03353,0.24805 -0.45475,0.24804 -0.7717,0.65456 -0.31695,0.39964 -0.48921,0.92329 -0.16536,0.51676 -0.16536,1.06798 v 2.07395 h 1.45383 v 0.80615 h -3.85162 v -0.80615 h 1.45383 v -4.80936 h -1.45383 v -0.80615 h 2.39779 v 1.61231 q 0.64768,-1.76389 2.4598,-1.76389 0.4892,0 0.84749,0.062 0.36518,0.062 0.67524,0.22049 z m -7.20025,2.32888 q 0,0.75103 -0.24116,1.36426 -0.23426,0.61323 -0.68212,1.0542 -0.44098,0.43408 -1.06109,0.68213 -0.62012,0.24804 -1.38493,0.24804 -0.75103,0 -1.37115,-0.24804 -0.62012,-0.24805 -1.06798,-0.68213 -0.44097,-0.44097 -0.68213,-1.0542 -0.23426,-0.61323 -0.23426,-1.36426 0,-0.73036 0.23426,-1.35737 0.24116,-0.63389 0.68213,-1.07487 0.44786,-0.44786 1.06798,-0.69591 0.62012,-0.25493 1.37115,-0.25493 0.76481,0 1.38493,0.25493 0.62011,0.24805 1.06109,0.69591 0.44786,0.44098 0.68212,1.07487 0.24116,0.62701 0.24116,1.35737 z m -0.94395,0 q 0,-0.55121 -0.16537,-1.01286 -0.15847,-0.46853 -0.47542,-0.81993 -0.31695,-0.3514 -0.7717,-0.55121 -0.44787,-0.19982 -1.01286,-0.19982 -0.565,0 -1.01975,0.19982 -0.44786,0.19981 -0.75792,0.55121 -0.31006,0.3514 -0.47542,0.81993 -0.15848,0.46165 -0.15848,1.01286 0,0.55122 0.15848,1.01975 0.16536,0.46164 0.47542,0.79926 0.31006,0.33762 0.75792,0.53055 0.45475,0.19292 1.01975,0.19292 0.56499,0 1.01286,-0.19292 0.45475,-0.19293 0.7717,-0.53055 0.31695,-0.33762 0.47542,-0.79926 0.16537,-0.46853 0.16537,-1.01975 z m -6.93843,-0.0138 q 0,0.73725 -0.22737,1.35737 -0.22738,0.62012 -0.65457,1.06798 -0.4203,0.44097 -1.01975,0.68902 -0.59944,0.24804 -1.34359,0.24804 -0.52365,0 -1.00596,-0.18603 -0.47543,-0.18604 -0.88884,-0.55122 v 0.57878 h -0.94395 v -8.9917 h 0.94395 v 3.1626 q 0.41341,-0.3514 0.88884,-0.54433 0.48231,-0.19981 1.00596,-0.19981 0.74415,0 1.34359,0.25493 0.59945,0.24805 1.01975,0.69591 0.42719,0.44098 0.65457,1.06798 0.22737,0.62012 0.22737,1.35048 z m -0.95773,0 q 0,-0.55121 -0.1447,-1.01286 -0.1378,-0.46853 -0.42719,-0.81304 -0.28939,-0.34451 -0.72347,-0.54432 -0.42719,-0.19982 -0.99219,-0.19982 -1.08865,0 -1.8948,0.86127 v 3.43132 q 0.41341,0.44786 0.88195,0.64079 0.47542,0.19292 1.01285,0.19292 0.565,0 0.9853,-0.19981 0.42719,-0.19982 0.71658,-0.54433 0.28939,-0.34451 0.43408,-0.80615 0.15159,-0.46853 0.15159,-1.00597 z m -6.59392,0.0138 q 0,0.75103 -0.24115,1.36426 -0.23427,0.61323 -0.68213,1.0542 -0.44097,0.43408 -1.06109,0.68213 -0.62012,0.24804 -1.38493,0.24804 -0.75103,0 -1.37115,-0.24804 -0.62011,-0.24805 -1.06798,-0.68213 -0.44097,-0.44097 -0.68213,-1.0542 -0.23426,-0.61323 -0.23426,-1.36426 0,-0.73036 0.23426,-1.35737 0.24116,-0.63389 0.68213,-1.07487 0.44787,-0.44786 1.06798,-0.69591 0.62012,-0.25493 1.37115,-0.25493 0.76481,0 1.38493,0.25493 0.62012,0.24805 1.06109,0.69591 0.44786,0.44098 0.68213,1.07487 0.24115,0.62701 0.24115,1.35737 z m -0.94395,0 q 0,-0.55121 -0.16537,-1.01286 -0.15847,-0.46853 -0.47542,-0.81993 -0.31695,-0.3514 -0.7717,-0.55121 -0.44786,-0.19982 -1.01286,-0.19982 -0.56499,0 -1.01975,0.19982 -0.44786,0.19981 -0.75792,0.55121 -0.31006,0.3514 -0.47542,0.81993 -0.15848,0.46165 -0.15848,1.01286 0,0.55122 0.15848,1.01975 0.16536,0.46164 0.47542,0.79926 0.31006,0.33762 0.75792,0.53055 0.45476,0.19292 1.01975,0.19292 0.565,0 1.01286,-0.19292 0.45475,-0.19293 0.7717,-0.53055 0.31695,-0.33762 0.47542,-0.79926 0.16537,-0.46853 0.16537,-1.01975 z m -7.28982,-2.32888 q -0.50988,-0.25494 -1.21268,-0.25494 -0.57877,0 -1.03353,0.24805 -0.45475,0.24804 -0.7717,0.65456 -0.31695,0.39964 -0.4892,0.92329 -0.16536,0.51676 -0.16536,1.06798 v 2.07395 h 1.45383 v 0.80615 h -3.851621 v -0.80615 h 1.453831 v -4.80936 h -1.453831 v -0.80615 h 2.397791 v 1.61231 q 0.64767,-1.76389 2.45979,-1.76389 0.48921,0 0.8475,0.062 0.36518,0.062 0.67524,0.22049 z m -13.449656,-0.90262 h 0.943957 v 3.96875 q 0,0.86128 0.37207,1.3367 0.37896,0.46853 1.212673,0.46853 0.523655,0 0.943957,-0.24116 0.420301,-0.24115 0.716579,-0.64078 0.296279,-0.40652 0.447863,-0.92329 0.158474,-0.52365 0.158474,-1.08865 v -2.8801 h 0.950846 v 6.42166 h -0.950846 v -1.60541 q -0.675239,1.76388 -2.425347,1.76388 -2.370226,0 -2.370226,-2.61138 z m -5.168277,6.62364 c -0.749495,-0.0791 -1.471362,-0.433 -2.010497,-0.98575 -0.586076,-0.60088 -0.927386,-1.38311 -0.972643,-2.22919 -0.04498,-0.84076 0.212959,-1.65988 0.734912,-2.33384 0.09857,-0.12728 0.380208,-0.41632 0.505355,-0.51865 0.376817,-0.30811 0.818563,-0.53242 1.281523,-0.65073 0.185573,-0.0474 0.194523,-0.052 0.239674,-0.12176 0.208201,-0.32175 0.648632,-0.40801 0.926564,-0.18146 l 0.06129,0.0499 -0.06697,0.0363 c -0.08694,0.0471 -0.206013,0.1698 -0.252105,0.25987 -0.140857,0.27527 -0.06293,0.61755 0.182139,0.79995 l 0.04257,0.0317 -0.05588,0.0246 c -0.249152,0.10995 -0.52893,0.0625 -0.729551,-0.12373 -0.0869,-0.0806 -0.117624,-0.086 -0.255356,-0.0446 -0.73156,0.21998 -1.313748,0.72128 -1.64194,1.41379 -0.126772,0.2675 -0.206808,0.53918 -0.246271,0.83597 -0.02182,0.16403 -0.01874,0.54851 0.0058,0.71279 0.08559,0.57541 0.325222,1.07591 0.711642,1.48634 0.40479,0.42993 0.909591,0.69845 1.491338,0.79329 0.207435,0.0339 0.54787,0.0364 0.749075,0.006 0.75678,-0.11541 1.406181,-0.53673 1.82952,-1.18696 0.200181,-0.30747 0.346708,-0.70143 0.404963,-1.0888 0.02464,-0.16377 0.02809,-0.5722 0.0061,-0.72823 -0.05228,-0.37223 -0.186406,-0.76227 -0.363636,-1.0575 -0.273361,-0.45536 -0.695536,-0.83595 -1.167584,-1.05258 -0.131388,-0.0603 -0.35289,-0.13765 -0.481359,-0.1681 -0.176956,-0.0419 -0.283842,-0.16094 -0.299046,-0.33295 -0.02082,-0.23554 0.196366,-0.43368 0.424097,-0.38691 0.323062,0.0663 0.739696,0.23937 1.040857,0.43227 0.292055,0.18707 0.603615,0.46667 0.819274,0.73523 0.32347,0.40282 0.56891,0.91655 0.679167,1.42156 0.250544,1.14758 -0.08601,2.33354 -0.898703,3.16685 -0.546527,0.5604 -1.26259,0.9088 -2.02703,0.98628 -0.144017,0.0146 -0.526047,0.0142 -0.667262,-7.7e-4 z m 0.166313,-6.62848 c 0.03306,-0.0339 0.03874,-0.0478 0.03874,-0.0947 0,-0.0469 -0.0057,-0.0608 -0.03874,-0.0946 -0.03225,-0.0331 -0.04707,-0.0398 -0.08859,-0.0398 -0.05694,0 -0.09314,0.0216 -0.117653,0.0702 -0.04826,0.0957 0.01491,0.19688 0.123661,0.19804 0.03503,3.7e-4 0.05166,-0.007 0.08259,-0.0393 z"
       inkscape:connector-curvature="0" />
  </g>
</svg>
