<?xml version="1.0" encoding="UTF-8" standalone="no"?>
<!-- Created with Inkscape (http://www.inkscape.org/) -->

<svg
   xmlns:dc="http://purl.org/dc/elements/1.1/"
   xmlns:cc="http://creativecommons.org/ns#"
   xmlns:rdf="http://www.w3.org/1999/02/22-rdf-syntax-ns#"
   xmlns:svg="http://www.w3.org/2000/svg"
   xmlns="http://www.w3.org/2000/svg"
   xmlns:sodipodi="http://sodipodi.sourceforge.net/DTD/sodipodi-0.dtd"
   xmlns:inkscape="http://www.inkscape.org/namespaces/inkscape"
   width="83.635933mm"
   height="10.980208mm"
   viewBox="0 0 83.635932 10.980208"
   version="1.1"
   id="svg8"
   inkscape:version="0.92.3 (2405546, 2018-03-11)"
   sodipodi:docname="ouroboros.svg">
  <defs
     id="defs2">















	
	
</defs>
  <sodipodi:namedview
     id="base"
     pagecolor="#ffffff"
     bordercolor="#666666"
     borderopacity="1.0"
     inkscape:pageopacity="0.0"
     inkscape:pageshadow="2"
     inkscape:zoom="2.8"
     inkscape:cx="160.05803"
     inkscape:cy="113.93483"
     inkscape:document-units="mm"
     inkscape:current-layer="layer1"
     showgrid="false"
     inkscape:snap-others="false"
     inkscape:snap-nodes="false"
     inkscape:snap-global="false"
     inkscape:window-width="2880"
     inkscape:window-height="1526"
     inkscape:window-x="2869"
     inkscape:window-y="-11"
     inkscape:window-maximized="1"
     fit-margin-top="0"
     fit-margin-left="0"
     fit-margin-right="0"
     fit-margin-bottom="0" />
  <metadata
     id="metadata5">
    <rdf:RDF>
      <cc:Work
         rdf:about="">
        <dc:format>image/svg+xml</dc:format>
        <dc:type
           rdf:resource="http://purl.org/dc/dcmitype/StillImage" />
        <dc:title></dc:title>
      </cc:Work>
    </rdf:RDF>
  </metadata>
  <g
     inkscape:groupmode="layer"
     id="layer2"
     inkscape:label="Layer 2"
     style="display:inline"
     transform="translate(-85.488322,-199.18135)">
    <g
       id="g3766"
       transform="matrix(0.02359272,0,0,0.02359272,45.325996,66.264057)" />
    <g
       id="g3768"
       transform="matrix(0.02359272,0,0,0.02359272,45.325996,66.264057)" />
    <g
       id="g3770"
       transform="matrix(0.02359272,0,0,0.02359272,45.325996,66.264057)" />
    <g
       id="g3772"
       transform="matrix(0.02359272,0,0,0.02359272,45.325996,66.264057)" />
    <g
       id="g3774"
       transform="matrix(0.02359272,0,0,0.02359272,45.325996,66.264057)" />
    <g
       id="g3776"
       transform="matrix(0.02359272,0,0,0.02359272,45.325996,66.264057)" />
    <g
       id="g3778"
       transform="matrix(0.02359272,0,0,0.02359272,45.325996,66.264057)" />
    <g
       id="g3780"
       transform="matrix(0.02359272,0,0,0.02359272,45.325996,66.264057)" />
    <g
       id="g3782"
       transform="matrix(0.02359272,0,0,0.02359272,45.325996,66.264057)" />
    <g
       id="g3784"
       transform="matrix(0.02359272,0,0,0.02359272,45.325996,66.264057)" />
    <g
       id="g3786"
       transform="matrix(0.02359272,0,0,0.02359272,45.325996,66.264057)" />
    <g
       id="g3788"
       transform="matrix(0.02359272,0,0,0.02359272,45.325996,66.264057)" />
    <g
       id="g3790"
       transform="matrix(0.02359272,0,0,0.02359272,45.325996,66.264057)" />
    <g
       id="g3792"
       transform="matrix(0.02359272,0,0,0.02359272,45.325996,66.264057)" />
    <g
       id="g3794"
       transform="matrix(0.02359272,0,0,0.02359272,45.325996,66.264057)" />
  </g>
  <g
     inkscape:label="Layer 1"
     inkscape:groupmode="layer"
     id="layer1"
     transform="translate(-85.488322,-199.18135)">
    <path
       style="fill:#000000;stroke-width:0.04137177"
       d="m 157.60352,-6.703125 v 40.78125 h 4.28125 v -2.625 c 1.25001,1.104151 2.59377,1.937506 4.03125,2.5 1.45834,0.56252 2.97915,0.84375 4.5625,0.84375 2.24997,0 4.28124,-0.374991 6.09375,-1.125 1.81251,-0.750009 3.35417,-1.791683 4.625,-3.125 1.29166,-1.35418 2.28125,-2.968752 2.96875,-4.84375 0.68749,-1.874998 1.03125,-3.927085 1.03125,-6.15625 0,-2.208328 -0.34376,-4.250002 -1.03125,-6.125 -0.6875,-1.895836 -1.67709,-3.5104083 -2.96875,-4.84375 -1.27083,-1.3541543 -2.81249,-2.4062406 -4.625,-3.15625 -1.81251,-0.770822 -3.84378,-1.15625 -6.09375,-1.15625 -1.58335,0 -3.10416,0.3020799 -4.5625,0.90625 -1.43748,0.5833323 -2.78124,1.4062492 -4.03125,2.46875 V -6.703125 Z M 27.769531,-5.4882812 c -0.360526,0.011528 -0.721577,0.057916 -0.984375,0.1367187 -0.887093,0.2660787 -1.631845,0.8036731 -2.171875,1.5703125 -0.26999,0.3834331 -0.371972,0.4545912 -0.791015,0.5449219 -1.690738,0.3641575 -3.138939,0.8643045 -4.658204,1.6113281 -2.05237,1.00917165 -3.62851,2.13708551 -5.234374,3.7441406 -1.041491,1.0422803 -1.749782,1.9104833 -2.535157,3.1074219 -1.7029982,2.5953638 -2.7356273,5.5447135 -3.0292966,8.6445315 -0.086098,0.908598 -0.064912,3.028888 0.039063,3.867187 0.3523767,2.841676 1.2904391,5.51575 2.7539066,7.84375 3.380527,5.377663 9.018072,8.727105 15.474608,9.195313 v -0.0039 c 0.458367,0.0359 2.272492,0.02841 2.75586,-0.0098 4.226812,-0.332561 8.041489,-1.874661 11.253906,-4.548828 C 46.19275,25.594485 48.673994,18.341302 47.083984,11.388672 46.751537,9.9349522 46.293169,8.6448513 45.621094,7.2714844 44.906737,5.8117552 44.10734,4.5777101 43.101562,3.3828125 40.409688,0.18461407 36.891543,-2.0121171 32.796875,-3.0527344 c -0.807568,-0.2048504 -1.151622,-0.2379489 -1.541016,-0.1464844 -0.984453,0.230967 -1.647557,1.0275888 -1.65625,1.9902344 -0.0089,1.00592128 0.655454,1.8185282 1.673829,2.0449219 2.657359,0.5905134 5.022497,1.8148608 7.15039,3.7050781 1.027302,0.912567 2.171113,2.3249326 2.890625,3.5683594 1.052738,1.8193134 1.7082,3.84641 1.955078,6.050781 0.07487,0.668485 0.06306,2.319126 -0.02148,3.041016 -0.410929,3.509405 -1.935419,6.600998 -4.478516,9.082031 -2.485512,2.424794 -5.547019,3.865621 -9.158203,4.310547 -0.687428,0.08391 -2.863059,0.06992 -3.558594,-0.02344 -2.720647,-0.364724 -5.051349,-1.266503 -7.177734,-2.779296 -0.759761,-0.540548 -1.27069,-0.976875 -1.986328,-1.69336 -2.486831,-2.489612 -4.012042,-5.73614 -4.322266,-9.207031 -0.05493,-0.613795 -0.05315,-1.998124 0.002,-2.607422 0.264076,-2.920252 1.394203,-5.718358 3.25,-8.0449218 0.495232,-0.6209007 1.703715,-1.8247286 2.332032,-2.3222656 0.988346,-0.782589 1.874177,-1.3375934 3.03125,-1.8984375 0.999503,-0.4844598 2.238009,-0.9269483 3.082031,-1.10156248 0.349844,-0.072189 0.527921,-0.0126072 0.851562,0.28710938 0.659328,0.6099024 1.342173,0.9471655 2.191407,1.0839844 0.44282,0.071055 1.23962,0.030913 1.642578,-0.083984 C 29.302625,2.102588 29.859691,1.87833 29.857473,1.837889 29.856641,1.823149 29.769223,1.756349 29.664113,1.6894515 29.152037,1.3646389 28.619372,0.70293154 28.373098,0.08788902 c -0.173405,-0.43305826 -0.26625,-1.00096678 -0.238281,-1.44921872 0.03156,-0.5028662 0.128131,-0.8594403 0.361328,-1.3378907 0.350162,-0.7185637 0.863506,-1.231988 1.605468,-1.6035156 l 0.345704,-0.171875 -0.160157,-0.1386718 c -0.473217,-0.408641 -0.96387,-0.6643388 -1.53716,-0.8007797 -0.260496,-0.062173 -0.619942,-0.085746 -0.980469,-0.074219 z m -1.410156,1.640625 c 0.572273,0 0.945239,0.5807013 0.691406,1.078125 -0.08961,0.175748 -0.177203,0.2602246 -0.365234,0.3554687 v -0.00195 c -0.146132,0.075969 -0.471918,0.085358 -0.632813,0.021484 -0.132162,-0.052536 -0.321423,-0.231378 -0.396484,-0.375 -0.03228,-0.061228 -0.05859,-0.2074948 -0.05859,-0.3261719 0,-0.4301859 0.326011,-0.7519531 0.761719,-0.7519531 z M 108.10352,4.265625 c -5.47916,0 -9.197905,2.6666836 -11.156254,8 v -7.3125 h -10.875 v 3.65625 h 6.59375 v 21.8125 h -6.59375 v 3.65625 h 17.468754 v -3.65625 h -6.593754 v -9.40625 c 0,-1.666671 0.249993,-3.281243 0.75,-4.84375 0.520844,-1.58332 1.260413,-2.97916 2.21875,-4.1875 0.958314,-1.229178 2.124984,-2.2187657 3.500004,-2.96875 1.37499,-0.7500094 2.9375,-1.125 4.6875,-1.125 2.125,0 3.95833,0.3854028 5.5,1.15625 l 1.40625,-3.5 c -0.9375,-0.4791937 -1.95833,-0.8125354 -3.0625,-1 -1.08332,-0.1874646 -2.36457,-0.28125 -3.84375,-0.28125 z m 27.5625,0 c -2.27085,0 -4.34376,0.385428 -6.21875,1.15625 -1.875,0.7500094 -3.4896,1.8020957 -4.84375,3.15625 -1.33335,1.3333417 -2.36458,2.958326 -3.09375,4.875 -0.70834,1.895836 -1.0625,3.947922 -1.0625,6.15625 0,2.270816 0.35416,4.333314 1.0625,6.1875 0.72917,1.854161 1.7604,3.447908 3.09375,4.78125 1.35415,1.312479 2.96875,2.343741 4.84375,3.09375 1.87499,0.750009 3.9479,1.125 6.21875,1.125 2.31249,0 4.40625,-0.374991 6.28125,-1.125 1.87499,-0.750009 3.47915,-1.781271 4.8125,-3.09375 1.35418,-1.333342 2.38544,-2.927089 3.09375,-4.78125 0.72917,-1.854186 1.09375,-3.916684 1.09375,-6.1875 0,-2.208328 -0.36458,-4.260414 -1.09375,-6.15625 -0.70831,-1.916674 -1.73957,-3.5416583 -3.09375,-4.875 -1.33335,-1.3541543 -2.93751,-2.4062406 -4.8125,-3.15625 -1.875,-0.770822 -3.96876,-1.15625 -6.28125,-1.15625 z m 70,0 c -2.27085,0 -4.34376,0.385428 -6.21875,1.15625 -1.875,0.7500094 -3.4896,1.8020957 -4.84375,3.15625 -1.33335,1.3333417 -2.36458,2.958326 -3.09375,4.875 -0.70834,1.895836 -1.0625,3.947922 -1.0625,6.15625 0,2.270816 0.35416,4.333314 1.0625,6.1875 0.72917,1.854161 1.7604,3.447908 3.09375,4.78125 1.35415,1.312479 2.96875,2.343741 4.84375,3.09375 1.87499,0.750009 3.9479,1.125 6.21875,1.125 2.31249,0 4.40622,-0.374991 6.28125,-1.125 1.87499,-0.750009 3.47918,-1.781271 4.8125,-3.09375 1.35418,-1.333342 2.38541,-2.927089 3.09375,-4.78125 0.72914,-1.854186 1.09375,-3.916684 1.09375,-6.1875 0,-2.208328 -0.36461,-4.260414 -1.09375,-6.15625 -0.70834,-1.916674 -1.73957,-3.5416583 -3.09375,-4.875 -1.33332,-1.3541543 -2.93751,-2.4062406 -4.8125,-3.15625 -1.87503,-0.770822 -3.96876,-1.15625 -6.28125,-1.15625 z m 42.4375,0 c -5.47916,0 -9.19793,2.6666836 -11.15625,8 v -7.3125 h -10.875 v 3.65625 h 6.59375 v 21.8125 h -6.59375 v 3.65625 h 17.46875 v -3.65625 h -6.59375 v -9.40625 c 0,-1.666671 0.25001,-3.281243 0.75,-4.84375 0.52084,-1.58332 1.26041,-2.97916 2.21875,-4.1875 0.95833,-1.229178 2.125,-2.2187657 3.5,-2.96875 1.37499,-0.7500094 2.9375,-1.125 4.6875,-1.125 2.125,0 3.95833,0.3854028 5.5,1.15625 l 1.40625,-3.5 c -0.9375,-0.4791937 -1.95835,-0.8125354 -3.0625,-1 -1.08334,-0.1874646 -2.36457,-0.28125 -3.84375,-0.28125 z m 27.5625,0 c -2.27082,0 -4.34376,0.385428 -6.21875,1.15625 -1.875,0.7500094 -3.48957,1.8020957 -4.84375,3.15625 -1.33335,1.3333417 -2.36461,2.958326 -3.09375,4.875 -0.70834,1.895836 -1.0625,3.947922 -1.0625,6.15625 0,2.270816 0.35416,4.333314 1.0625,6.1875 0.72914,1.854161 1.7604,3.447908 3.09375,4.78125 1.35418,1.312479 2.96875,2.343741 4.84375,3.09375 1.87499,0.750009 3.94793,1.125 6.21875,1.125 2.31251,0 4.40625,-0.374991 6.28125,-1.125 1.87499,-0.750009 3.47918,-1.781271 4.8125,-3.09375 1.35418,-1.333342 2.38541,-2.927089 3.09375,-4.78125 0.72917,-1.854186 1.09375,-3.916684 1.09375,-6.1875 0,-2.208328 -0.36458,-4.260414 -1.09375,-6.15625 -0.70834,-1.916674 -1.73957,-3.5416583 -3.09375,-4.875 -1.33332,-1.3541543 -2.93751,-2.4062406 -4.8125,-3.15625 -1.875,-0.770822 -3.96874,-1.15625 -6.28125,-1.15625 z m 34.8125,0 c -1.79168,0 -3.52086,0.1666709 -5.1875,0.5 -1.66668,0.3333291 -3.12499,0.8541661 -4.375,1.5625 -1.22916,0.7083339 -2.21874,1.5937492 -2.96875,2.65625 -0.72918,1.062501 -1.09375,2.322907 -1.09375,3.78125 0,1.708321 0.39581,3.083337 1.1875,4.125 0.81249,1.041663 1.87499,1.874992 3.1875,2.5 1.33331,0.625008 2.80206,1.093759 4.40625,1.40625 1.60415,0.312617 3.21875,0.583461 4.84375,0.8125 1.27082,0.166702 2.47914,0.343785 3.625,0.53125 1.16666,0.187515 2.19792,0.447921 3.09375,0.78125 0.89582,0.312491 1.60415,0.729156 2.125,1.25 0.54165,0.500006 0.8125,1.156252 0.8125,1.96875 0,3.333317 -3.21876,5 -9.65625,5 -2.22917,0 -4.38543,-0.364604 -6.46875,-1.09375 -2.08333,-0.729172 -4.19792,-1.77082 -6.34375,-3.125 l -1.90625,3.6875 c 1.91664,1.250016 4.18749,2.260428 6.8125,3.03125 2.625,0.770847 5.26043,1.15625 7.90625,1.15625 1.58334,0 3.19791,-0.145821 4.84375,-0.4375 1.66667,-0.270841 3.16668,-0.739592 4.5,-1.40625 1.35418,-0.666658 2.45835,-1.562486 3.3125,-2.6875 0.85417,-1.124989 1.28125,-2.541654 1.28125,-4.25 0,-1.708321 -0.40626,-3.083337 -1.21875,-4.125 -0.8125,-1.041663 -1.88541,-1.86458 -3.21875,-2.46875 -1.31251,-0.60417 -2.78126,-1.062509 -4.40625,-1.375 -1.60416,-0.312643 -3.19791,-0.583461 -4.78125,-0.8125 -1.27083,-0.166702 -2.48959,-0.343785 -3.65625,-0.53125 -1.14583,-0.18749 -2.16666,-0.437509 -3.0625,-0.75 -0.89583,-0.333354 -1.6146,-0.739581 -2.15625,-1.21875 -0.52085,-0.499981 -0.78125,-1.156252 -0.78125,-1.96875 0,-0.937499 0.31249,-1.70833 0.9375,-2.3125 0.64582,-0.6250079 1.4375,-1.1249953 2.375,-1.5 0.93749,-0.3957669 1.94791,-0.6666102 3.03125,-0.8125 1.10417,-0.1668031 2.10417,-0.25 3,-0.25 2,0 3.85415,0.2395815 5.5625,0.71875 1.70832,0.4583307 3.39582,1.2708354 5.0625,2.4375 l 1.71875,-3.34375 c -1.625,-1.1041512 -3.44792,-1.9479177 -5.46875,-2.53125 -2.02084,-0.6041701 -4.31251,-0.90625 -6.875,-0.90625 z m -257.875004,0.6875 v 18 c 0,7.895836 3.583327,11.84375 10.75,11.84375 5.291666,0 8.958349,-2.666658 11,-8 v 7.28125 h 4.3125 v -29.125 h -4.3125 v 13.0625 c 0,1.708321 -0.239607,3.354155 -0.71875,4.9375 -0.458356,1.562507 -1.135427,2.958347 -2.03125,4.1875 -0.895824,1.20834 -1.979147,2.177078 -3.25,2.90625 -1.270829,0.729146 -2.697931,1.09375 -4.28125,1.09375 -2.520839,0 -4.354166,-0.708332 -5.5,-2.125 -1.124999,-1.43748 -1.6875,-3.45833 -1.6875,-6.0625 v -18 z m 83.062504,2.9375 c 1.70832,0 3.23957,0.3020799 4.59375,0.90625 1.37499,0.6041701 2.54166,1.437499 3.5,2.5 0.95833,1.062501 1.67708,2.302082 2.15625,3.71875 0.5,1.39583 0.75,2.927079 0.75,4.59375 0,1.666671 -0.25,3.208332 -0.75,4.625 -0.47917,1.39583 -1.19792,2.604175 -2.15625,3.625 -0.95834,1.020825 -2.12501,1.822918 -3.5,2.40625 -1.35418,0.583332 -2.88543,0.875 -4.59375,0.875 -1.70835,0 -3.25001,-0.291668 -4.625,-0.875 -1.35416,-0.583332 -2.50001,-1.385425 -3.4375,-2.40625 -0.9375,-1.020825 -1.65625,-2.22917 -2.15625,-3.625 -0.47917,-1.416668 -0.71875,-2.958329 -0.71875,-4.625 0,-1.666671 0.23958,-3.19792 0.71875,-4.59375 0.5,-1.416668 1.21875,-2.656249 2.15625,-3.71875 0.93749,-1.062501 2.08334,-1.8958299 3.4375,-2.5 1.37499,-0.6041701 2.91665,-0.90625 4.625,-0.90625 z m 34.8125,0 c 1.70832,0 3.20833,0.3020799 4.5,0.90625 1.3125,0.6041701 2.40626,1.427087 3.28125,2.46875 0.87501,1.041663 1.52084,2.270832 1.9375,3.6875 0.43751,1.39583 0.65625,2.927079 0.65625,4.59375 0,1.624995 -0.22917,3.145832 -0.6875,4.5625 -0.43752,1.39583 -1.09377,2.614562 -1.96875,3.65625 -0.87502,1.041663 -1.95834,1.86458 -3.25,2.46875 -1.27083,0.604145 -2.76043,0.90625 -4.46875,0.90625 -1.62502,0 -3.15627,-0.291668 -4.59375,-0.875 -1.41667,-0.583332 -2.74999,-1.552096 -4,-2.90625 v -15.5625 c 2.43751,-2.6041701 5.30208,-3.90625 8.59375,-3.90625 z m 35.1875,0 c 1.70834,0 3.23959,0.3020799 4.59375,0.90625 1.37499,0.6041701 2.54166,1.437499 3.5,2.5 0.95833,1.062501 1.67708,2.302082 2.15625,3.71875 0.5,1.39583 0.75,2.927079 0.75,4.59375 0,1.666671 -0.25,3.208332 -0.75,4.625 -0.47917,1.39583 -1.19792,2.604175 -2.15625,3.625 -0.95834,1.020825 -2.12501,1.822918 -3.5,2.40625 -1.35416,0.583332 -2.88541,0.875 -4.59375,0.875 -1.70833,0 -3.24999,-0.291668 -4.625,-0.875 -1.35416,-0.583332 -2.50001,-1.385425 -3.4375,-2.40625 -0.9375,-1.020825 -1.65625,-2.22917 -2.15625,-3.625 -0.47917,-1.416668 -0.71875,-2.958329 -0.71875,-4.625 0,-1.666671 0.23958,-3.19792 0.71875,-4.59375 0.5,-1.416668 1.21875,-2.656249 2.15625,-3.71875 0.93749,-1.062501 2.08334,-1.8958299 3.4375,-2.5 1.37501,-0.6041701 2.91667,-0.90625 4.625,-0.90625 z m 70,0 c 1.70834,0 3.23959,0.3020799 4.59375,0.90625 1.37501,0.6041701 2.54168,1.437499 3.5,2.5 0.95833,1.062501 1.67708,2.302082 2.15625,3.71875 0.5,1.39583 0.75,2.927079 0.75,4.59375 0,1.666671 -0.25,3.208332 -0.75,4.625 -0.47917,1.39583 -1.19792,2.604175 -2.15625,3.625 -0.95832,1.020825 -2.12499,1.822918 -3.5,2.40625 -1.35416,0.583332 -2.88541,0.875 -4.59375,0.875 -1.70833,0 -3.25001,-0.291668 -4.625,-0.875 -1.35418,-0.583332 -2.50001,-1.385425 -3.4375,-2.40625 -0.9375,-1.020825 -1.65625,-2.22917 -2.15625,-3.625 -0.47917,-1.416668 -0.71875,-2.958329 -0.71875,-4.625 0,-1.666671 0.23958,-3.19792 0.71875,-4.59375 0.5,-1.416668 1.21875,-2.656249 2.15625,-3.71875 0.93749,-1.062501 2.08332,-1.8958299 3.4375,-2.5 1.37499,-0.6041701 2.91667,-0.90625 4.625,-0.90625 z"
       transform="matrix(0.26458333,0,0,0.26458333,83.289182,200.95489)"
       id="path159"
       inkscape:connector-curvature="0" />
  </g>
</svg>
